<svg aria-hidden="true" style="position: absolute; width: 0; height: 0; overflow: hidden;" version="1.1" xmlns="http://www.w3.org/2000/svg" xmlns:xlink="http://www.w3.org/1999/xlink">
<defs>
<symbol id="icon-Vector-pinterest" viewBox="0 0 26 32">
<path d="M14.059 0.574c-6.533 0-12.99 4.056-12.99 10.621 0 4.175 2.522 6.547 4.050 6.547 0.63 0 0.993-1.637 0.993-2.099 0-0.552-1.509-1.726-1.509-4.021 0-4.768 3.897-8.148 8.94-8.148 4.336 0 7.545 2.295 7.545 6.512 0 3.149-1.356 9.056-5.75 9.056-1.585 0-2.942-1.067-2.942-2.597 0-2.242 1.681-4.412 1.681-6.725 0-3.926-5.979-3.214-5.979 1.53 0 0.996 0.134 2.099 0.611 3.007-0.879 3.523-2.674 8.771-2.674 12.4 0 1.121 0.172 2.224 0.287 3.345 0.216 0.225 0.108 0.202 0.439 0.089 3.209-4.092 3.095-4.893 4.546-10.248 0.783 1.388 2.808 2.135 4.413 2.135 6.762 0 9.8-6.138 9.8-11.671 0-5.889-5.463-9.732-11.461-9.732z"></path>
</symbol>
<symbol id="icon-icon-send" viewBox="0 0 32 32">
<path d="M32 0l-32 18 10.227 3.788 15.773-14.788-11.998 16.186 0.010 0.004-0.012-0.004v8.814l5.735-6.691 7.265 2.691 5-28z"></path>
</symbol>
<symbol id="icon-close-black-18dp-2-1" viewBox="0 0 32 32">
<path d="M26.667 7.303l-1.97-1.97-7.808 7.808-7.808-7.808-1.97 1.97 7.808 7.808-7.808 7.808 1.97 1.97 7.808-7.808 7.808 7.808 1.97-1.97-7.808-7.808 7.808-7.808z"></path>
</symbol>
<symbol id="icon-envelope-hover-2" viewBox="0 0 43 32">
<path d="M38.667 0h-34.667c-2.206 0-4 1.794-4 4v24c0 2.206 1.794 4 4 4h34.667c2.206 0 4-1.794 4-4v-24c0-2.206-1.794-4-4-4v0zM38.667 2.667c0.181 0 0.353 0.038 0.511 0.103l-17.844 15.466-17.844-15.466c0.158-0.066 0.33-0.103 0.511-0.103h34.667zM38.667 29.333h-34.667c-0.736 0-1.333-0.598-1.333-1.333v-22.413l17.793 15.421c0.251 0.217 0.563 0.326 0.874 0.326s0.622-0.108 0.874-0.326l17.793-15.421v22.413c0 0.736-0.598 1.333-1.333 1.333v0z"></path>
</symbol>
<symbol id="icon-logo-6-1" viewBox="0 0 66 32">
<path d="M33.295 15.012c-0.311-0.427-0.46-0.931-0.424-1.438v-2.085c0-0.639 0.141-1.125 0.422-1.457s0.765-0.498 1.45-0.496c0.644 0 1.101 0.141 1.371 0.424 0.295 0.361 0.438 0.802 0.405 1.247v0.49h-1.152v-0.496c0.004-0.162-0.007-0.325-0.033-0.486-0.017-0.11-0.075-0.212-0.165-0.289-0.118-0.083-0.267-0.123-0.417-0.112-0.158-0.011-0.314 0.032-0.439 0.119-0.1 0.085-0.167 0.197-0.191 0.318-0.033 0.17-0.048 0.343-0.045 0.516v2.531c-0.018 0.244 0.033 0.488 0.148 0.711 0.057 0.075 0.137 0.135 0.23 0.172s0.196 0.051 0.297 0.040c0.148 0.011 0.294-0.030 0.408-0.115 0.094-0.083 0.154-0.191 0.172-0.308 0.027-0.168 0.039-0.338 0.036-0.507v-0.513h1.152v0.469c0.032 0.464-0.108 0.925-0.398 1.311-0.265 0.31-0.716 0.465-1.379 0.465s-1.164-0.165-1.448-0.509z"></path>
<path d="M38.092 15.034c-0.291-0.325-0.436-0.798-0.436-1.424v-2.194c0-0.619 0.145-1.088 0.436-1.407s0.778-0.477 1.46-0.475c0.677 0 1.162 0.158 1.453 0.475 0.291 0.318 0.439 0.787 0.439 1.407v2.194c0 0.62-0.148 1.095-0.444 1.421s-0.778 0.49-1.448 0.49c-0.67 0-1.166-0.165-1.46-0.488zM40.088 14.507c0.104-0.203 0.152-0.426 0.138-0.649v-2.686c0.013-0.219-0.033-0.437-0.136-0.636-0.058-0.077-0.14-0.137-0.235-0.175s-0.201-0.050-0.304-0.037c-0.103-0.013-0.209 0-0.305 0.038s-0.178 0.098-0.237 0.174c-0.105 0.199-0.152 0.417-0.138 0.636v2.699c-0.014 0.223 0.033 0.446 0.138 0.649 0.067 0.068 0.15 0.123 0.243 0.161s0.194 0.057 0.296 0.057c0.102 0 0.203-0.019 0.296-0.057s0.176-0.092 0.243-0.161v-0.013z"></path>
<path d="M42.828 9.598h1.24l0.933 4.047 0.954-4.047h1.207l0.122 5.842h-0.892l-0.095-4.060-0.921 4.060h-0.716l-0.954-4.075-0.088 4.075h-0.902l0.112-5.842z"></path>
<path d="M48.674 9.598h1.932c1.113 0 1.669 0.553 1.669 1.659 0 1.059-0.586 1.588-1.758 1.587h-0.658v2.596h-1.193l0.007-5.842zM50.325 12.095c0.118 0.013 0.238 0.004 0.351-0.028s0.217-0.085 0.305-0.156c0.137-0.197 0.197-0.429 0.172-0.66 0.006-0.178-0.013-0.356-0.057-0.53-0.017-0.058-0.047-0.113-0.088-0.16s-0.092-0.088-0.151-0.118c-0.166-0.071-0.349-0.103-0.532-0.093h-0.463v1.746h0.463z"></path>
<path d="M53.995 9.598h1.281l1.314 5.842h-1.111l-0.26-1.347h-1.142l-0.267 1.347h-1.128l1.314-5.842zM55.090 13.416l-0.446-2.452-0.446 2.452h0.892z"></path>
<path d="M57.651 9.598h0.835l1.598 3.333v-3.333h0.99v5.842h-0.794l-1.608-3.479v3.479h-1.023l0.002-5.842z"></path>
<path d="M63.392 13.213l-1.328-3.606h1.119l0.811 2.317 0.761-2.317h1.095l-1.312 3.606v2.227h-1.145v-2.227z"></path>
<path d="M35.137 17.995v0.305h-0.973v2.374h-0.408v-2.374h-0.978v-0.305h2.359z"></path>
<path d="M38.187 20.674h-0.315c-0.032 0.002-0.064-0.007-0.088-0.025-0.024-0.016-0.042-0.037-0.052-0.062l-0.281-0.636h-1.35l-0.281 0.636c-0.008 0.027-0.023 0.051-0.043 0.072-0.025 0.018-0.056 0.027-0.088 0.025h-0.315l1.193-2.679h0.415l1.207 2.669zM36.212 19.68h1.126l-0.477-1.090c-0.035-0.082-0.065-0.167-0.088-0.252-0.017 0.051-0.031 0.1-0.045 0.142l-0.043 0.112-0.472 1.088z"></path>
<path d="M40.243 20.411c0.075 0.003 0.15 0.003 0.224 0 0.064-0.006 0.128-0.017 0.191-0.032 0.058-0.013 0.116-0.029 0.172-0.049 0.052-0.019 0.105-0.043 0.16-0.066v-0.603h-0.477c-0.012 0.001-0.024-0.001-0.035-0.005s-0.021-0.009-0.030-0.017c-0.008-0.006-0.014-0.014-0.018-0.022s-0.006-0.018-0.006-0.027v-0.206h0.925v1.027c-0.076 0.048-0.155 0.091-0.239 0.127-0.085 0.037-0.174 0.068-0.265 0.091-0.098 0.026-0.197 0.044-0.298 0.055-0.116 0.011-0.232 0.017-0.348 0.017-0.206 0.002-0.41-0.032-0.601-0.1-0.179-0.064-0.341-0.159-0.477-0.28-0.133-0.122-0.237-0.266-0.308-0.424-0.075-0.178-0.112-0.366-0.11-0.556-0.002-0.191 0.034-0.381 0.107-0.56 0.069-0.159 0.173-0.303 0.308-0.424 0.136-0.121 0.298-0.215 0.477-0.278 0.204-0.068 0.421-0.102 0.639-0.1 0.111-0 0.222 0.008 0.332 0.023 0.097 0.014 0.192 0.037 0.284 0.068 0.083 0.028 0.163 0.063 0.239 0.106 0.073 0.042 0.142 0.089 0.207 0.14l-0.114 0.165c-0.009 0.015-0.022 0.028-0.039 0.037s-0.035 0.014-0.054 0.014c-0.026-0.001-0.052-0.008-0.074-0.021-0.036-0.017-0.074-0.038-0.117-0.064-0.051-0.028-0.104-0.052-0.16-0.072-0.071-0.025-0.144-0.045-0.219-0.059-0.1-0.016-0.201-0.024-0.303-0.023-0.157-0.002-0.314 0.024-0.46 0.074-0.133 0.047-0.252 0.12-0.351 0.212-0.099 0.096-0.174 0.21-0.222 0.333-0.107 0.29-0.107 0.603 0 0.893 0.052 0.126 0.133 0.241 0.239 0.337 0.098 0.092 0.217 0.164 0.348 0.212 0.152 0.046 0.312 0.064 0.472 0.053z"></path>
<path d="M44.045 20.369h1.302v0.305h-1.701v-2.679h0.408l-0.010 2.374z"></path>
<path d="M46.702 20.674h-0.408v-2.679h0.408v2.679z"></path>
<path d="M48.219 18.007c0.024 0.012 0.045 0.029 0.062 0.049l1.743 2.020c-0.002-0.032-0.002-0.064 0-0.095 0-0.030 0-0.059 0-0.087v-1.909h0.355v2.69h-0.205c-0.030 0.002-0.061-0.003-0.088-0.015-0.025-0.013-0.047-0.031-0.064-0.051l-1.741-2.018c0 0.032 0 0.061 0 0.091s0 0.057 0 0.083v1.909h-0.341v-2.68h0.212c0.023 0 0.046 0.004 0.067 0.013z"></path>
<path d="M53.382 17.995v0.295h-1.445v0.885h1.171v0.284h-1.171v0.914h1.445v0.295h-1.865v-2.673h1.865z"></path>
<path d="M10.644 1.448l18.11 4.574v16.027l-18.11-4.572v-16.029zM9.483 0.082v18.174l20.43 5.161v-18.172l-20.43-5.164z"></path>
<path d="M20.433 31.854l-20.433-5.166v-18.172l20.433 5.164v18.174z"></path>
<path d="M9.822 1.242l17.874 4.516-7.601 6.763-17.876-4.519 7.604-6.761zM9.483 0.082l-9.483 8.435 20.433 5.163 9.481-8.435-20.43-5.163z"></path>
<path d="M21.582 30.832l8.331-7.412-8.331-2.107v9.519z"></path>
</symbol>
<symbol id="icon-logo-5-2" viewBox="0 0 42 32">
<path d="M3.191 26.321c0.163 0.191 0.251 0.43 0.246 0.675 0.008 0.16-0.022 0.32-0.088 0.468s-0.166 0.279-0.294 0.386c-0.318 0.226-0.711 0.337-1.108 0.311h-1.948v-4.279h1.908c0.377-0.024 0.75 0.077 1.057 0.284 0.123 0.097 0.221 0.22 0.285 0.359s0.093 0.29 0.085 0.441c0.011 0.236-0.067 0.468-0.222 0.654-0.148 0.17-0.353 0.288-0.581 0.334 0.258 0.044 0.492 0.174 0.658 0.366zM0.906 25.675h0.816c0.185 0.013 0.369-0.038 0.519-0.142 0.061-0.052 0.109-0.117 0.139-0.19s0.043-0.151 0.036-0.228c0.006-0.077-0.007-0.155-0.037-0.227s-0.076-0.137-0.136-0.191c-0.154-0.108-0.343-0.159-0.534-0.144h-0.802v1.123zM2.32 27.316c0.065-0.054 0.117-0.121 0.15-0.196s0.048-0.157 0.042-0.239c0.005-0.083-0.010-0.165-0.044-0.241s-0.087-0.144-0.153-0.198c-0.16-0.112-0.356-0.166-0.554-0.155h-0.855v1.177h0.866c0.195 0.011 0.388-0.042 0.547-0.148z"></path>
<path d="M7.092 28.161l-1.062-1.672h-0.399v1.672h-0.913v-4.279h1.729c0.436-0.029 0.866 0.102 1.203 0.364 0.242 0.232 0.387 0.538 0.411 0.863s-0.077 0.647-0.282 0.908c-0.213 0.23-0.505 0.384-0.824 0.435l1.13 1.71h-0.993zM5.631 25.905h0.747c0.519 0 0.778-0.216 0.778-0.648 0.005-0.088-0.009-0.177-0.042-0.259s-0.083-0.158-0.149-0.221c-0.164-0.129-0.375-0.191-0.587-0.174h-0.756l0.009 1.302z"></path>
<path d="M12.082 27.299h-1.819l-0.321 0.861h-0.957l1.671-4.231h1.035l1.664 4.231h-0.957l-0.315-0.861zM11.838 26.651l-0.665-1.806-0.665 1.806h1.33z"></path>
<path d="M18.33 28.161h-0.906l-2.032-2.91v2.91h-0.904v-4.279h0.904l2.032 2.927v-2.927h0.906v4.279z"></path>
<path d="M23.502 27.136c-0.187 0.323-0.473 0.586-0.82 0.755-0.395 0.188-0.832 0.281-1.274 0.27h-1.613v-4.279h1.613c0.441-0.011 0.878 0.079 1.274 0.263 0.347 0.165 0.633 0.425 0.82 0.746 0.187 0.348 0.284 0.733 0.284 1.123s-0.097 0.775-0.284 1.123zM22.465 27.034c0.259-0.284 0.401-0.647 0.401-1.021s-0.142-0.737-0.401-1.021c-0.313-0.258-0.72-0.388-1.135-0.364h-0.629v2.77h0.629c0.414 0.024 0.822-0.106 1.135-0.364z"></path>
<path d="M12.65 0.078c0 0 11.699 4.166 11.451 10.196v10.198c0 0-11.69-4.169-11.446-10.198l-0.004-10.196z"></path>
<path d="M34.523 18.084c2.209-1.434 4.765-2.323 7.433-2.584v-3.192c-3.074 1.118-5.682 3.144-7.433 5.776z"></path>
<path d="M33.195 19.046c1.808-3.435 4.943-6.086 8.76-7.407v-9.198c0 0-16.661 5.935-16.308 14.521v14.519c0 0 0.742-0.266 1.91-0.763 0-0.464 0-0.932 0.053-1.403 0.345-3.986 2.354-7.68 5.585-10.269z"></path>
<path d="M31.611 24.439c0.087-1.007 0.283-2.003 0.583-2.973-2.012 2.236-3.23 5.011-3.484 7.934-0.024 0.276-0.038 0.552-0.044 0.836 0.946-0.428 2.048-0.964 3.204-1.593-0.295-1.383-0.383-2.798-0.259-4.204z"></path>
<path d="M32.273 24.492c-0.111 1.272-0.042 2.552 0.206 3.807 4.552-2.569 9.667-6.539 9.469-11.337v-0.418c-3.252 0.343-6.295 1.684-8.661 3.817-0.554 1.322-0.896 2.714-1.015 4.131z"></path>
</symbol>
<symbol id="icon-logo-4-1" viewBox="0 0 60 32">
<path d="M9.229 9.548h-0.002c-1.684 0-3.048 1.33-3.048 2.971v0.002c0 1.641 1.365 2.971 3.048 2.971h0.002c1.684 0 3.048-1.33 3.048-2.971v-0.002c0-1.641-1.365-2.971-3.048-2.971z"></path>
<path d="M31.73 8.599c-0.005-2.279-0.936-4.463-2.589-6.074s-3.894-2.519-6.233-2.524v0c-2.339 0.004-4.581 0.911-6.235 2.523s-2.586 3.796-2.59 6.076v0 12.566c0 0 17.645-1.915 17.647-12.564v-0.002z"></path>
<path d="M-0 25.289c0.004 1.586 0.652 3.105 1.803 4.226s2.709 1.753 4.336 1.758v0c1.627-0.005 3.185-0.636 4.336-1.757s1.799-2.64 1.803-4.225v0-8.744c0 0-12.278 1.334-12.278 8.742zM6.139 26.856c-0.318 0-0.629-0.092-0.893-0.264s-0.47-0.417-0.592-0.703c-0.122-0.286-0.154-0.601-0.091-0.905s0.215-0.583 0.44-0.802 0.511-0.368 0.823-0.429c0.312-0.060 0.635-0.029 0.929 0.089s0.545 0.319 0.721 0.577c0.177 0.258 0.271 0.561 0.271 0.87 0.001 0.206-0.040 0.411-0.121 0.601s-0.199 0.364-0.348 0.51-0.327 0.262-0.522 0.341c-0.195 0.079-0.405 0.12-0.617 0.12v-0.006z"></path>
<path d="M18.671 25.884h-1.256v1.297h-0.654v-3.174h2.067v0.53h-1.413v0.82h1.256v0.528zM21.815 25.666c0 0.312-0.055 0.587-0.166 0.822s-0.269 0.417-0.475 0.545c-0.205 0.128-0.44 0.192-0.706 0.192-0.263 0-0.498-0.063-0.704-0.19s-0.366-0.307-0.48-0.541c-0.113-0.235-0.171-0.506-0.172-0.811v-0.157c0-0.312 0.056-0.587 0.168-0.824 0.113-0.238 0.273-0.421 0.477-0.547 0.206-0.128 0.442-0.192 0.706-0.192s0.499 0.064 0.704 0.192c0.206 0.126 0.366 0.309 0.477 0.547 0.113 0.237 0.17 0.511 0.17 0.822v0.142zM21.152 25.522c0-0.333-0.060-0.586-0.179-0.759s-0.289-0.259-0.51-0.259c-0.219 0-0.389 0.086-0.508 0.257-0.119 0.17-0.18 0.42-0.181 0.75v0.155c0 0.324 0.060 0.576 0.179 0.754s0.291 0.268 0.515 0.268c0.22 0 0.388-0.086 0.506-0.257 0.118-0.173 0.177-0.424 0.179-0.754v-0.155zM23.936 26.348c0-0.124-0.044-0.218-0.131-0.283-0.087-0.067-0.244-0.137-0.471-0.209-0.227-0.074-0.406-0.147-0.539-0.218-0.36-0.195-0.541-0.457-0.541-0.787 0-0.172 0.048-0.324 0.144-0.458 0.097-0.135 0.236-0.241 0.416-0.316 0.182-0.076 0.385-0.113 0.61-0.113 0.227 0 0.429 0.041 0.606 0.124 0.177 0.081 0.315 0.197 0.412 0.347 0.099 0.15 0.148 0.32 0.148 0.51h-0.654c0-0.145-0.046-0.258-0.137-0.338-0.092-0.081-0.22-0.122-0.386-0.122-0.16 0-0.284 0.034-0.373 0.102-0.089 0.067-0.133 0.156-0.133 0.266 0 0.103 0.052 0.19 0.155 0.259 0.105 0.070 0.258 0.135 0.46 0.196 0.372 0.112 0.643 0.251 0.813 0.416s0.255 0.372 0.255 0.619c0 0.275-0.104 0.491-0.312 0.648-0.208 0.156-0.488 0.233-0.839 0.233-0.244 0-0.467-0.044-0.667-0.133-0.201-0.090-0.354-0.213-0.46-0.368-0.105-0.156-0.157-0.336-0.157-0.541h0.656c0 0.35 0.209 0.525 0.628 0.525 0.156 0 0.277-0.031 0.364-0.094 0.087-0.064 0.131-0.153 0.131-0.266zM27.427 24.536h-0.972v2.645h-0.654v-2.645h-0.959v-0.53h2.586v0.53zM29.712 25.805h-1.256v0.85h1.474v0.525h-2.128v-3.174h2.124v0.53h-1.469v0.757h1.256v0.512zM31.489 26.019h-0.521v1.162h-0.654v-3.174h1.18c0.375 0 0.664 0.084 0.868 0.251s0.305 0.403 0.305 0.709c0 0.217-0.047 0.397-0.142 0.543-0.093 0.144-0.235 0.259-0.425 0.344l0.687 1.297v0.030h-0.702l-0.595-1.162zM30.967 25.489h0.528c0.164 0 0.291-0.041 0.382-0.124 0.090-0.084 0.135-0.2 0.135-0.347 0-0.15-0.043-0.267-0.129-0.353-0.084-0.086-0.214-0.129-0.39-0.129h-0.525v0.953zM34.931 26.063v1.118h-0.654v-3.174h1.238c0.238 0 0.448 0.044 0.628 0.131 0.182 0.087 0.321 0.212 0.419 0.373 0.097 0.16 0.146 0.342 0.146 0.547 0 0.311-0.107 0.557-0.321 0.737-0.212 0.179-0.507 0.268-0.883 0.268h-0.573zM34.931 25.533h0.584c0.173 0 0.305-0.041 0.395-0.122 0.092-0.081 0.137-0.198 0.137-0.349 0-0.156-0.046-0.281-0.137-0.377s-0.218-0.145-0.379-0.148h-0.6v0.996zM39.069 25.805h-1.256v0.85h1.474v0.525h-2.128v-3.174h2.124v0.53h-1.469v0.757h1.256v0.512zM42.104 24.536h-0.972v2.645h-0.654v-2.645h-0.959v-0.53h2.586v0.53zM44.389 25.805h-1.256v0.85h1.474v0.525h-2.128v-3.174h2.124v0.53h-1.469v0.757h1.256v0.512zM46.166 26.019h-0.521v1.162h-0.654v-3.174h1.179c0.375 0 0.664 0.084 0.868 0.251s0.305 0.403 0.305 0.709c0 0.217-0.047 0.397-0.142 0.543-0.093 0.144-0.235 0.259-0.425 0.344l0.687 1.297v0.030h-0.702l-0.595-1.162zM45.645 25.489h0.528c0.164 0 0.291-0.041 0.382-0.124 0.090-0.084 0.135-0.2 0.135-0.347 0-0.15-0.043-0.267-0.129-0.353-0.084-0.086-0.214-0.129-0.39-0.129h-0.525v0.953zM49.489 26.348c0-0.124-0.044-0.218-0.131-0.283-0.087-0.067-0.244-0.137-0.471-0.209-0.227-0.074-0.406-0.147-0.538-0.218-0.36-0.195-0.541-0.457-0.541-0.787 0-0.172 0.048-0.324 0.144-0.458 0.097-0.135 0.236-0.241 0.416-0.316 0.182-0.076 0.385-0.113 0.61-0.113 0.227 0 0.429 0.041 0.606 0.124 0.177 0.081 0.315 0.197 0.412 0.347 0.099 0.15 0.148 0.32 0.148 0.51h-0.654c0-0.145-0.046-0.258-0.137-0.338-0.092-0.081-0.22-0.122-0.386-0.122-0.16 0-0.284 0.034-0.373 0.102-0.089 0.067-0.133 0.156-0.133 0.266 0 0.103 0.052 0.19 0.155 0.259 0.105 0.070 0.258 0.135 0.46 0.196 0.372 0.112 0.643 0.251 0.813 0.416s0.255 0.372 0.255 0.619c0 0.275-0.104 0.491-0.312 0.648-0.208 0.156-0.488 0.233-0.839 0.233-0.244 0-0.467-0.044-0.667-0.133-0.201-0.090-0.354-0.213-0.46-0.368-0.105-0.156-0.157-0.336-0.157-0.541h0.656c0 0.35 0.209 0.525 0.628 0.525 0.156 0 0.277-0.031 0.364-0.094 0.087-0.064 0.131-0.153 0.131-0.266z"></path>
</symbol>
<symbol id="icon-logo-3-1" viewBox="0 0 31 32">
<path d="M4.835 30.673c0.011 0 0.023 0.003 0.033 0.007s0.020 0.010 0.028 0.018l0.157 0.154c-0.122 0.125-0.272 0.225-0.441 0.293-0.198 0.074-0.411 0.11-0.625 0.105-0.201 0.004-0.402-0.030-0.588-0.098-0.168-0.063-0.319-0.157-0.443-0.277-0.126-0.124-0.224-0.27-0.286-0.428-0.068-0.177-0.102-0.362-0.1-0.549-0.003-0.188 0.034-0.375 0.108-0.551 0.068-0.159 0.172-0.305 0.304-0.428 0.134-0.121 0.294-0.216 0.47-0.279 0.193-0.067 0.399-0.1 0.606-0.098 0.192-0.004 0.384 0.026 0.562 0.089 0.155 0.060 0.298 0.144 0.421 0.247l-0.131 0.165c-0.009 0.012-0.020 0.022-0.033 0.030-0.016 0.010-0.034 0.014-0.053 0.012-0.020-0.001-0.040-0.007-0.057-0.018l-0.071-0.044-0.098-0.056c-0.042-0.021-0.086-0.039-0.131-0.054-0.058-0.019-0.118-0.033-0.178-0.044-0.077-0.013-0.155-0.019-0.233-0.018-0.149-0.002-0.297 0.023-0.435 0.074-0.129 0.047-0.245 0.117-0.341 0.207-0.098 0.096-0.173 0.208-0.221 0.33-0.055 0.14-0.082 0.287-0.080 0.435-0.002 0.15 0.025 0.3 0.080 0.442 0.048 0.121 0.122 0.233 0.218 0.328 0.090 0.089 0.201 0.159 0.325 0.203 0.128 0.047 0.265 0.071 0.404 0.070 0.080 0.001 0.16-0.004 0.239-0.014 0.129-0.014 0.253-0.054 0.363-0.118 0.055-0.032 0.107-0.069 0.155-0.109 0.020-0.017 0.047-0.027 0.074-0.028z"></path>
<path d="M9.362 29.897c0.002 0.186-0.033 0.371-0.106 0.546-0.064 0.158-0.165 0.303-0.295 0.424s-0.289 0.216-0.463 0.278c-0.384 0.131-0.808 0.131-1.191 0-0.173-0.063-0.33-0.158-0.461-0.279-0.131-0.123-0.232-0.269-0.298-0.428-0.141-0.353-0.141-0.74 0-1.093 0.067-0.159 0.168-0.305 0.298-0.43 0.131-0.117 0.288-0.208 0.461-0.268 0.383-0.133 0.808-0.133 1.191 0 0.174 0.063 0.332 0.158 0.462 0.279 0.129 0.122 0.23 0.266 0.296 0.423 0.073 0.176 0.108 0.362 0.106 0.549zM8.95 29.897c0.003-0.149-0.022-0.297-0.075-0.439-0.044-0.121-0.115-0.233-0.21-0.328-0.092-0.090-0.205-0.161-0.331-0.207-0.279-0.096-0.587-0.096-0.866 0-0.126 0.046-0.239 0.117-0.331 0.207-0.096 0.095-0.168 0.207-0.212 0.328-0.1 0.286-0.1 0.592 0 0.877 0.044 0.121 0.116 0.233 0.212 0.328 0.092 0.090 0.205 0.16 0.331 0.205 0.279 0.093 0.587 0.093 0.866 0 0.126-0.046 0.239-0.116 0.331-0.205 0.094-0.096 0.165-0.207 0.21-0.328 0.053-0.141 0.078-0.29 0.075-0.439z"></path>
<path d="M12.45 30.357l0.041 0.098c0.016-0.035 0.029-0.067 0.045-0.098 0.015-0.033 0.032-0.065 0.051-0.096l1.001-1.63c0.020-0.028 0.037-0.046 0.057-0.051 0.027-0.007 0.055-0.010 0.082-0.009h0.296v2.651h-0.351v-1.949c0-0.025 0-0.053 0-0.082-0.002-0.030-0.002-0.061 0-0.091l-1.007 1.652c-0.013 0.025-0.033 0.046-0.059 0.060s-0.056 0.022-0.086 0.022h-0.057c-0.030 0-0.060-0.007-0.086-0.022s-0.046-0.036-0.059-0.061l-1.037-1.663c0 0.032 0 0.063 0 0.095s0 0.060 0 0.084v1.949h-0.339v-2.645h0.296c0.028-0.001 0.056 0.002 0.082 0.009 0.024 0.011 0.044 0.029 0.055 0.051l1.023 1.631c0.020 0.030 0.037 0.062 0.051 0.095z"></path>
<path d="M16.219 30.225v0.993h-0.392v-2.647h0.874c0.165-0.003 0.33 0.017 0.488 0.058 0.127 0.032 0.244 0.088 0.345 0.165 0.087 0.072 0.154 0.161 0.196 0.26 0.046 0.108 0.069 0.223 0.067 0.338 0.002 0.116-0.023 0.231-0.072 0.339-0.047 0.102-0.12 0.192-0.212 0.265-0.101 0.080-0.219 0.139-0.347 0.175-0.153 0.044-0.312 0.064-0.472 0.061l-0.474-0.007zM16.219 29.941h0.474c0.103 0.001 0.206-0.012 0.304-0.040 0.081-0.024 0.156-0.063 0.22-0.114 0.059-0.049 0.104-0.109 0.133-0.175 0.032-0.071 0.048-0.146 0.047-0.223 0.005-0.074-0.009-0.147-0.039-0.216s-0.077-0.13-0.137-0.181c-0.15-0.105-0.338-0.155-0.527-0.142h-0.474v1.091z"></path>
<path d="M21.486 31.221h-0.31c-0.031 0.001-0.062-0.008-0.086-0.025-0.022-0.017-0.040-0.038-0.051-0.061l-0.267-0.64h-1.338l-0.276 0.64c-0.010 0.023-0.027 0.044-0.049 0.060-0.025 0.018-0.056 0.027-0.088 0.026h-0.31l1.176-2.651h0.408l1.192 2.651zM19.546 30.237h1.105l-0.466-1.079c-0.036-0.081-0.065-0.164-0.088-0.249l-0.045 0.139c-0.014 0.042-0.029 0.081-0.043 0.112l-0.462 1.077z"></path>
<path d="M23.18 28.583c0.023 0.012 0.044 0.028 0.059 0.047l1.715 1.998c0-0.032 0-0.063 0-0.093s0-0.060 0-0.088v-1.877h0.351v2.651h-0.196c-0.028 0.001-0.055-0.005-0.080-0.016-0.024-0.013-0.046-0.029-0.063-0.049l-1.713-1.996c0.002 0.030 0.002 0.061 0 0.091 0 0.030 0 0.056 0 0.081v1.889h-0.351v-2.651h0.208c0.024-0.001 0.048 0.004 0.070 0.012z"></path>
<path d="M28.193 30.167v1.053h-0.392v-1.053l-1.084-1.596h0.351c0.030-0.002 0.060 0.006 0.084 0.023 0.021 0.017 0.039 0.037 0.053 0.060l0.678 1.030c0.027 0.044 0.051 0.084 0.071 0.123s0.035 0.075 0.049 0.112l0.051-0.114c0.019-0.042 0.041-0.082 0.067-0.121l0.668-1.037c0.014-0.021 0.031-0.040 0.051-0.056 0.023-0.018 0.053-0.028 0.084-0.026h0.355l-1.086 1.603z"></path>
<path d="M12.256 24.122c0.171 0.019 0.343 0.035 0.517 0.049 2.644-1.059 4.881-2.792 6.431-4.983s2.344-4.742 2.284-7.334l-2.914-2.609c0.593 2.76 0.315 5.614-0.8 8.241s-3.026 4.925-5.518 6.635z"></path>
<path d="M11.216 24.001l0.078 0.014c2.662-1.705 4.692-4.085 5.827-6.833s1.322-5.738 0.538-8.583l-4.151-3.715c1.679 3.054 2.355 6.472 1.949 9.856s-1.877 6.596-4.242 9.261z"></path>
<path d="M25.292 14.917c-0.705 2.849-2.418 5.418-4.884 7.326-0.72 0.56-1.497 1.060-2.32 1.491 2.008-0.528 3.853-1.462 5.394-2.73s2.736-2.835 3.493-4.582l-1.683-1.505z"></path>
<path d="M24.632 14.498l-2.397-2.145c-0.046 2.446-0.823 4.836-2.25 6.923s-3.452 3.793-5.865 4.941h0.012c0.538-0 1.075-0.029 1.609-0.086 2.255-0.824 4.247-2.135 5.799-3.816s2.614-3.679 3.093-5.817z"></path>
<path d="M11.562 3.316l-2.859-2.563c-2.556 0.884-4.754 2.438-6.307 4.46s-2.388 4.415-2.396 6.868v0c0.010 2.71 1.029 5.341 2.896 7.474s4.476 3.649 7.414 4.306c2.622-2.86 4.158-6.394 4.383-10.089s-0.871-7.357-3.131-10.456z"></path>
<path d="M31.238 14.104c-0.010-3.216-1.442-6.297-3.982-8.571s-5.983-3.555-9.575-3.565c-1.66-0.002-3.306 0.273-4.854 0.809l17.506 15.671c0.599-1.385 0.906-2.858 0.905-4.344z"></path>
</symbol>
<symbol id="icon-logo-2-1" viewBox="0 0 26 32">
<path d="M10.865 1.951h0.087c0.162 0 0.337 0.015 0.51 0.029 0.763 0.051 1.521 0.158 2.267 0.321v-1.722c-0.768-0.181-1.55-0.298-2.34-0.35-0.3-0.021-0.618-0.035-0.945-0.043h-0.274c-1.584 0.006-3.161 0.197-4.695 0.569-1.747 0.409-3.425 1.050-4.982 1.904v17.075c1.499-0.765 3.095-1.35 4.749-1.739 1.306-0.313 2.641-0.506 3.986-0.575h0.053c0.225-0.011 0.45-0.017 0.682-0.018v-1.749c-1.748 0.021-3.487 0.238-5.181 0.647-0.627 0.153-1.232 0.318-1.8 0.502l-0.648 0.206v-13.314l0.277-0.125c2.113-0.941 4.398-1.489 6.73-1.613 0.019-0.001 0.039-0.001 0.058 0 0.257-0.012 0.516-0.018 0.771-0.018h0.291c0.134 0.003 0.269 0.006 0.403 0.014z"></path>
<path d="M15.431 3.754c-0.426 0-0.847-0.014-1.253-0.043-0.486-0.034-0.984-0.089-1.457-0.164-0.288-0.046-0.572-0.101-0.847-0.161v16.88c1.165 0.271 2.362 0.404 3.562 0.395 1.584-0.006 3.161-0.197 4.695-0.567 1.748-0.41 3.425-1.051 4.983-1.904v-16.771c-1.499 0.765-3.094 1.35-4.747 1.74-1.613 0.389-3.271 0.589-4.936 0.595zM22.615 4.046l0.648-0.205v13.318l-0.277 0.125c-1.062 0.475-2.171 0.849-3.311 1.118-1.384 0.337-2.808 0.51-4.237 0.515-0.427 0-0.852-0.017-1.263-0.050l-0.444-0.037v-13.696l0.516 0.032c0.376 0.023 0.764 0.034 1.187 0.034 1.815-0.006 3.622-0.224 5.38-0.648 0.604-0.15 1.205-0.318 1.8-0.506z"></path>
<path d="M1.752 25.569c-0.093-0.091-0.205-0.162-0.329-0.209s-0.257-0.069-0.391-0.065c-0.142-0.002-0.284 0.023-0.416 0.073-0.121 0.045-0.231 0.114-0.324 0.2-0.091 0.087-0.163 0.191-0.209 0.306-0.051 0.12-0.076 0.248-0.074 0.378v2.281c-0.006 0.161 0.027 0.321 0.096 0.468 0.057 0.117 0.14 0.221 0.243 0.306 0.097 0.077 0.211 0.132 0.334 0.162 0.118 0.031 0.24 0.047 0.363 0.047 0.135 0.001 0.269-0.026 0.392-0.079 0.121-0.050 0.231-0.122 0.324-0.211 0.090-0.089 0.162-0.192 0.212-0.306 0.052-0.115 0.078-0.239 0.078-0.364v-0.255h-0.635v0.203c0.002 0.069-0.011 0.139-0.037 0.203-0.021 0.049-0.052 0.092-0.092 0.128-0.039 0.030-0.084 0.052-0.133 0.066-0.043 0.013-0.088 0.021-0.133 0.021-0.057 0.006-0.114-0.002-0.166-0.023s-0.098-0.056-0.132-0.099c-0.060-0.092-0.089-0.198-0.084-0.306v-2.127c-0.004-0.118 0.023-0.235 0.078-0.341 0.033-0.048 0.080-0.087 0.135-0.111s0.116-0.034 0.176-0.027c0.055-0.002 0.109 0.009 0.158 0.031s0.092 0.056 0.125 0.097c0.071 0.088 0.108 0.196 0.105 0.306v0.197h0.628v-0.232c0.001-0.137-0.025-0.272-0.078-0.399-0.047-0.12-0.119-0.229-0.212-0.321z"></path>
<path d="M5.522 25.543c-0.202-0.161-0.458-0.249-0.722-0.251-0.129 0-0.257 0.022-0.379 0.064-0.123 0.041-0.237 0.105-0.335 0.187-0.105 0.089-0.189 0.198-0.246 0.32-0.064 0.139-0.095 0.29-0.092 0.442v2.188c-0.004 0.154 0.027 0.307 0.092 0.448 0.057 0.118 0.141 0.222 0.246 0.306 0.097 0.085 0.211 0.15 0.335 0.193 0.121 0.042 0.25 0.064 0.379 0.064s0.258-0.022 0.379-0.064c0.126-0.043 0.243-0.108 0.343-0.193 0.101-0.085 0.183-0.189 0.24-0.306 0.065-0.141 0.097-0.294 0.092-0.448v-2.188c0.003-0.152-0.028-0.303-0.092-0.442-0.056-0.121-0.138-0.229-0.24-0.32zM5.226 28.493c0.005 0.058-0.003 0.117-0.025 0.172s-0.056 0.104-0.101 0.145c-0.084 0.066-0.19 0.102-0.299 0.102s-0.215-0.036-0.299-0.102c-0.045-0.040-0.079-0.090-0.101-0.145s-0.030-0.113-0.025-0.172v-2.188c-0.005-0.058 0.003-0.117 0.025-0.172s0.056-0.104 0.101-0.145c0.084-0.066 0.19-0.102 0.299-0.102s0.215 0.036 0.299 0.102c0.045 0.041 0.079 0.090 0.101 0.145s0.030 0.114 0.025 0.172v2.188z"></path>
<path d="M10.475 29.47v-4.142h-0.61l-0.801 2.193h-0.011l-0.808-2.193h-0.604v4.142h0.63v-2.52h0.011l0.617 1.781h0.314l0.622-1.781h0.011v2.52h0.63z"></path>
<path d="M14.053 25.618c-0.097-0.102-0.219-0.18-0.356-0.226-0.147-0.045-0.302-0.067-0.457-0.064h-0.936v4.142h0.628v-1.618h0.324c0.196 0.008 0.391-0.031 0.567-0.113 0.143-0.075 0.262-0.184 0.345-0.316 0.073-0.11 0.122-0.233 0.144-0.361 0.025-0.156 0.036-0.313 0.034-0.471 0.006-0.199-0.015-0.398-0.062-0.592-0.042-0.143-0.122-0.274-0.232-0.381zM13.729 26.881c-0.003 0.075-0.023 0.149-0.058 0.216-0.036 0.064-0.093 0.115-0.162 0.145-0.093 0.039-0.195 0.057-0.296 0.052h-0.287v-1.408h0.324c0.098-0.004 0.195 0.013 0.283 0.052 0.065 0.035 0.116 0.089 0.147 0.153 0.034 0.073 0.053 0.151 0.055 0.231 0 0.087 0 0.179 0 0.275s0.006 0.196 0 0.284h-0.007z"></path>
<path d="M17.029 25.328h-0.515l-0.971 4.142h0.628l0.185-0.89h0.856l0.185 0.89h0.628l-0.996-4.142zM16.449 28.016l0.309-1.502h0.011l0.308 1.502h-0.628z"></path>
<path d="M21.088 27.823h-0.011l-0.949-2.495h-0.604v4.142h0.628v-2.491h0.013l0.96 2.491h0.591v-4.142h-0.628v2.495z"></path>
<path d="M24.926 25.328l-0.505 1.647h-0.013l-0.505-1.647h-0.665l0.863 2.392v1.751h0.628v-1.751l0.863-2.392h-0.665z"></path>
<path d="M0 30.64h0.303v0.798h0.206v-0.798h0.301v-0.164h-0.809v0.164z"></path>
<path d="M2.545 30.476l-0.397 0.962h0.219l0.084-0.219h0.408l0.087 0.219h0.223l-0.406-0.962h-0.219zM2.513 31.057l0.139-0.356 0.139 0.356h-0.278z"></path>
<path d="M5.061 31.083h0.236v0.124c-0.069 0.052-0.155 0.081-0.243 0.081-0.041 0.002-0.083-0.005-0.12-0.021s-0.071-0.040-0.097-0.071c-0.054-0.073-0.081-0.162-0.076-0.251 0-0.214 0.099-0.321 0.295-0.321 0.052-0.005 0.103 0.008 0.146 0.036s0.073 0.070 0.086 0.117l0.202-0.037c-0.044-0.188-0.188-0.283-0.434-0.283-0.132-0.003-0.26 0.041-0.358 0.124-0.052 0.048-0.091 0.106-0.117 0.17s-0.036 0.132-0.030 0.2c-0.006 0.132 0.041 0.26 0.131 0.361 0.050 0.049 0.111 0.086 0.178 0.111s0.139 0.035 0.211 0.030c0.16 0.004 0.316-0.051 0.434-0.153v-0.379h-0.444v0.162z"></path>
<path d="M7.63 30.476h-0.207v0.962h0.717v-0.164h-0.51v-0.798z"></path>
<path d="M9.803 30.476h-0.207v0.962h0.207v-0.962z"></path>
<path d="M11.927 31.118l-0.419-0.642h-0.201v0.962h0.193v-0.628l0.411 0.628h0.206v-0.962h-0.189v0.642z"></path>
<path d="M13.848 31.014h0.51v-0.164h-0.51v-0.211h0.549v-0.164h-0.756v0.962h0.777v-0.164h-0.57v-0.26z"></path>
<path d="M18.504 30.855h-0.403v-0.379h-0.206v0.962h0.206v-0.421h0.403v0.421h0.206v-0.962h-0.206v0.379z"></path>
<path d="M20.435 31.014h0.512v-0.164h-0.512v-0.211h0.55v-0.164h-0.756v0.962h0.776v-0.164h-0.57v-0.26z"></path>
<path d="M23.055 31.015c0.178-0.026 0.269-0.115 0.269-0.268 0.005-0.041-0.001-0.082-0.019-0.12s-0.046-0.070-0.081-0.094c-0.093-0.044-0.196-0.063-0.3-0.057h-0.434v0.962h0.206v-0.402h0.040c0.044-0.003 0.088 0.005 0.128 0.021 0.030 0.017 0.055 0.042 0.073 0.070l0.223 0.306h0.246l-0.125-0.188c-0.055-0.093-0.133-0.172-0.227-0.231zM22.848 30.881h-0.152v-0.242h0.162c0.071-0.005 0.142 0.002 0.209 0.023 0.015 0.012 0.027 0.028 0.035 0.045s0.011 0.036 0.010 0.055c-0.001 0.019-0.006 0.037-0.016 0.054s-0.023 0.031-0.039 0.042c-0.068 0.019-0.138 0.027-0.209 0.023z"></path>
<path d="M25.030 31.014h0.51v-0.164h-0.51v-0.211h0.55v-0.164h-0.758v0.962h0.777v-0.164h-0.57v-0.26z"></path>
</symbol>
<symbol id="icon-logo-1-1" viewBox="0 0 31 32">
<path d="M4.085 0.157l4.975 4.425h13.879v12.345l4.975 4.425v-21.196h-23.83z"></path>
<path d="M0 4.396v20.59h23.149v-8.184l-13.942-12.401-9.207-0.005zM18.739 21.974h-15.076v-13.848h1.066v12.91h14.010v0.938z"></path>
<path d="M6.108 27.787l0.562 1.155 0.562-1.155h0.462l-0.814 1.529v0.891h-0.421v-0.891l-0.814-1.529h0.464zM8.711 28.11l-0.723 2.098h-0.437l0.911-2.42h0.279l-0.030 0.322zM9.316 30.207l-0.725-2.098-0.032-0.322h0.281l0.914 2.42h-0.439zM9.281 29.31v0.331h-1.316v-0.331h1.316zM11.247 28.891l0.417-0.281c0.070-0.047 0.12-0.092 0.15-0.136 0.030-0.045 0.045-0.102 0.045-0.17 0-0.058-0.022-0.111-0.067-0.16s-0.107-0.073-0.188-0.073c-0.056 0-0.104 0.013-0.143 0.040-0.039 0.025-0.068 0.060-0.088 0.103-0.019 0.042-0.028 0.089-0.028 0.141 0 0.050 0.013 0.101 0.038 0.155 0.026 0.052 0.060 0.107 0.105 0.165 0.044 0.056 0.094 0.117 0.15 0.183l1.144 1.35h-0.464l-0.934-1.099c-0.081-0.098-0.152-0.187-0.214-0.268-0.062-0.082-0.11-0.161-0.145-0.238-0.034-0.078-0.052-0.157-0.052-0.239 0-0.126 0.026-0.235 0.078-0.326s0.126-0.161 0.221-0.209c0.095-0.050 0.207-0.075 0.334-0.075 0.123 0 0.229 0.025 0.317 0.075 0.090 0.049 0.158 0.114 0.206 0.195 0.049 0.081 0.073 0.17 0.073 0.266 0 0.076-0.014 0.146-0.042 0.209s-0.066 0.121-0.115 0.173c-0.049 0.052-0.105 0.101-0.17 0.148l-0.507 0.369c-0.059 0.048-0.103 0.094-0.131 0.138-0.028 0.043-0.046 0.083-0.055 0.12s-0.013 0.069-0.013 0.096c0 0.071 0.015 0.135 0.045 0.193 0.031 0.058 0.076 0.104 0.135 0.138 0.060 0.033 0.132 0.050 0.218 0.050 0.092 0 0.181-0.020 0.268-0.061 0.086-0.042 0.164-0.101 0.233-0.178s0.123-0.168 0.163-0.274c0.041-0.106 0.062-0.224 0.062-0.354h0.346c0 0.117-0.012 0.229-0.035 0.334-0.022 0.105-0.058 0.203-0.108 0.293-0.049 0.090-0.113 0.17-0.193 0.241-0.008 0.008-0.017 0.018-0.027 0.030-0.009 0.011-0.018 0.020-0.027 0.028-0.095 0.087-0.202 0.153-0.321 0.196-0.117 0.042-0.243 0.063-0.376 0.063-0.161 0-0.3-0.029-0.417-0.088s-0.208-0.14-0.273-0.243c-0.063-0.103-0.095-0.221-0.095-0.354 0-0.099 0.021-0.185 0.061-0.259 0.041-0.075 0.097-0.145 0.168-0.209 0.072-0.065 0.155-0.131 0.249-0.196zM15.335 29.42h0.416c-0.013 0.158-0.058 0.3-0.133 0.424-0.075 0.123-0.181 0.22-0.317 0.291s-0.302 0.106-0.497 0.106c-0.15 0-0.284-0.027-0.404-0.080-0.12-0.054-0.222-0.131-0.307-0.229-0.085-0.1-0.151-0.22-0.196-0.361-0.044-0.141-0.067-0.298-0.067-0.472v-0.201c0-0.174 0.023-0.331 0.068-0.472 0.047-0.141 0.113-0.261 0.2-0.361 0.086-0.101 0.19-0.178 0.311-0.231 0.122-0.053 0.259-0.080 0.411-0.080 0.193 0 0.356 0.035 0.489 0.106s0.236 0.169 0.309 0.294c0.074 0.125 0.12 0.269 0.136 0.43h-0.416c-0.011-0.104-0.035-0.193-0.073-0.268-0.037-0.074-0.091-0.131-0.163-0.17-0.072-0.040-0.166-0.060-0.283-0.060-0.095 0-0.178 0.018-0.249 0.053s-0.13 0.088-0.178 0.156-0.084 0.153-0.108 0.254c-0.023 0.1-0.035 0.214-0.035 0.342v0.204c0 0.122 0.011 0.233 0.032 0.332 0.022 0.099 0.055 0.183 0.1 0.254 0.045 0.071 0.103 0.126 0.173 0.165s0.154 0.058 0.251 0.058c0.119 0 0.214-0.019 0.288-0.056 0.074-0.038 0.13-0.093 0.168-0.165 0.039-0.073 0.064-0.162 0.076-0.268zM18.059 28.931v0.133c0 0.183-0.024 0.347-0.072 0.492s-0.116 0.269-0.204 0.371c-0.087 0.102-0.193 0.18-0.316 0.234-0.123 0.053-0.259 0.080-0.409 0.080-0.148 0-0.284-0.027-0.407-0.080-0.122-0.054-0.228-0.132-0.317-0.234s-0.16-0.226-0.209-0.371c-0.049-0.145-0.073-0.309-0.073-0.492v-0.133c0-0.183 0.024-0.346 0.073-0.49 0.049-0.145 0.117-0.269 0.206-0.371 0.090-0.103 0.196-0.181 0.317-0.234 0.123-0.054 0.259-0.081 0.407-0.081 0.15 0 0.286 0.027 0.409 0.081 0.123 0.053 0.229 0.131 0.317 0.234 0.089 0.102 0.157 0.226 0.204 0.371 0.049 0.144 0.073 0.307 0.073 0.49zM17.642 29.064v-0.136c0-0.135-0.013-0.254-0.040-0.357-0.025-0.104-0.064-0.191-0.115-0.261-0.050-0.071-0.111-0.124-0.184-0.16-0.073-0.037-0.156-0.055-0.248-0.055s-0.174 0.018-0.246 0.055c-0.072 0.035-0.134 0.089-0.184 0.16-0.050 0.070-0.088 0.157-0.115 0.261-0.027 0.103-0.040 0.222-0.040 0.357v0.136c0 0.135 0.013 0.255 0.040 0.359s0.065 0.192 0.116 0.264c0.052 0.071 0.114 0.125 0.186 0.161 0.072 0.035 0.154 0.053 0.246 0.053 0.093 0 0.176-0.018 0.248-0.053 0.072-0.037 0.133-0.090 0.183-0.161 0.050-0.072 0.088-0.16 0.113-0.264 0.027-0.104 0.040-0.224 0.040-0.359z"></path>
</symbol>
<symbol id="icon-linkedin-1-1" viewBox="0 0 32 32">
<path d="M31.992 32v-0.001h0.008v-11.736c0-5.741-1.236-10.164-7.948-10.164-3.227 0-5.392 1.771-6.276 3.449h-0.093v-2.913h-6.364v21.364h6.627v-10.579c0-2.785 0.528-5.479 3.977-5.479 3.399 0 3.449 3.179 3.449 5.657v10.401h6.62z"></path>
<path d="M0.528 10.636h6.635v21.364h-6.635v-21.364z"></path>
<path d="M3.843 0c-2.121 0-3.843 1.721-3.843 3.843s1.721 3.879 3.843 3.879c2.121 0 3.843-1.757 3.843-3.879-0.001-2.121-1.723-3.843-3.843-3.843v0z"></path>
</symbol>
<symbol id="icon-facebook-1-1" viewBox="0 0 32 32">
<path d="M21.329 5.313h2.921v-5.088c-0.504-0.069-2.237-0.225-4.256-0.225-4.212 0-7.097 2.649-7.097 7.519v4.481h-4.648v5.688h4.648v14.312h5.699v-14.311h4.46l0.708-5.688h-5.169v-3.919c0.001-1.644 0.444-2.769 2.735-2.769z"></path>
</symbol>
<symbol id="icon-twitter-1-1" viewBox="0 0 32 32">
<path d="M32 6.078c-1.19 0.522-2.458 0.868-3.78 1.036 1.36-0.812 2.398-2.088 2.886-3.626-1.268 0.756-2.668 1.29-4.16 1.588-1.204-1.282-2.92-2.076-4.792-2.076-3.632 0-6.556 2.948-6.556 6.562 0 0.52 0.044 1.020 0.152 1.496-5.454-0.266-10.28-2.88-13.522-6.862-0.566 0.982-0.898 2.106-0.898 3.316 0 2.272 1.17 4.286 2.914 5.452-1.054-0.020-2.088-0.326-2.964-0.808 0 0.020 0 0.046 0 0.072 0 3.188 2.274 5.836 5.256 6.446-0.534 0.146-1.116 0.216-1.72 0.216-0.42 0-0.844-0.024-1.242-0.112 0.85 2.598 3.262 4.508 6.13 4.57-2.232 1.746-5.066 2.798-8.134 2.798-0.538 0-1.054-0.024-1.57-0.090 2.906 1.874 6.35 2.944 10.064 2.944 12.072 0 18.672-10 18.672-18.668 0-0.29-0.010-0.57-0.024-0.848 1.302-0.924 2.396-2.078 3.288-3.406z"></path>
</symbol>
<symbol id="icon-instagram-2-1" viewBox="0 0 32 32">
<path d="M31.969 9.408c-0.075-1.7-0.35-2.869-0.744-3.882-0.406-1.075-1.031-2.038-1.85-2.838-0.8-0.813-1.769-1.444-2.832-1.844-1.019-0.394-2.182-0.669-3.882-0.744-1.713-0.081-2.257-0.1-6.601-0.1s-4.888 0.019-6.595 0.094c-1.7 0.075-2.869 0.35-3.882 0.744-1.075 0.406-2.038 1.031-2.838 1.85-0.813 0.8-1.444 1.769-1.844 2.832-0.394 1.019-0.669 2.182-0.744 3.882-0.081 1.713-0.1 2.257-0.1 6.601s0.019 4.888 0.094 6.595c0.075 1.7 0.35 2.869 0.744 3.882 0.406 1.075 1.038 2.038 1.85 2.838 0.8 0.813 1.769 1.444 2.832 1.844 1.019 0.394 2.182 0.669 3.882 0.744 1.706 0.075 2.25 0.094 6.595 0.094s4.888-0.019 6.595-0.094c1.7-0.075 2.869-0.35 3.882-0.744 2.151-0.832 3.851-2.532 4.682-4.682 0.394-1.019 0.669-2.182 0.744-3.882 0.075-1.707 0.094-2.251 0.094-6.595s-0.006-4.888-0.081-6.595zM29.087 22.473c-0.069 1.563-0.331 2.407-0.55 2.969-0.538 1.394-1.644 2.5-3.038 3.038-0.563 0.219-1.413 0.481-2.969 0.55-1.688 0.075-2.194 0.094-6.464 0.094s-4.782-0.019-6.464-0.094c-1.563-0.069-2.407-0.331-2.969-0.55-0.694-0.256-1.325-0.663-1.838-1.194-0.531-0.519-0.938-1.144-1.194-1.838-0.219-0.563-0.481-1.413-0.55-2.969-0.075-1.688-0.094-2.194-0.094-6.464s0.019-4.782 0.094-6.464c0.069-1.563 0.331-2.407 0.55-2.969 0.256-0.694 0.663-1.325 1.2-1.838 0.519-0.531 1.144-0.938 1.838-1.194 0.563-0.219 1.413-0.481 2.969-0.55 1.688-0.075 2.194-0.094 6.464-0.094 4.276 0 4.782 0.019 6.464 0.094 1.563 0.069 2.407 0.331 2.969 0.55 0.694 0.256 1.325 0.662 1.838 1.194 0.531 0.519 0.938 1.144 1.194 1.838 0.219 0.563 0.481 1.413 0.55 2.969 0.075 1.688 0.094 2.194 0.094 6.464s-0.019 4.77-0.094 6.458z"></path>
<path d="M16.059 7.783c-4.538 0-8.22 3.682-8.22 8.22s3.682 8.22 8.22 8.22c4.538 0 8.22-3.682 8.22-8.22s-3.682-8.22-8.22-8.22zM16.059 21.336c-2.944 0-5.332-2.388-5.332-5.332s2.388-5.332 5.332-5.332c2.944 0 5.332 2.388 5.332 5.332s-2.388 5.332-5.332 5.332z"></path>
<path d="M26.524 7.458c0 1.060-0.859 1.919-1.919 1.919s-1.919-0.859-1.919-1.919c0-1.060 0.859-1.919 1.919-1.919s1.919 0.859 1.919 1.919z"></path>
</symbol>
<symbol id="icon-smartphone-1" viewBox="0 0 20 32">
<path d="M17 0h-14c-1.654 0-3 1.346-3 3v26c0 1.654 1.346 3 3 3h14c1.654 0 3-1.346 3-3v-26c0-1.654-1.346-3-3-3zM3 2h14c0.552 0 1 0.448 1 1v21h-16v-21c0-0.552 0.448-1 1-1zM17 30h-14c-0.552 0-1-0.448-1-1v-3h16v3c0 0.552-0.448 1-1 1z"></path>
<path d="M4.707 27.478c0.391 0.365 0.391 0.956 0 1.321s-1.024 0.365-1.414 0c-0.391-0.365-0.391-0.956 0-1.321s1.024-0.365 1.414 0z"></path>
</symbol>
<symbol id="icon-email-black-18dp-1-1" viewBox="0 0 32 32">
<path d="M26.667 5.333h-21.333c-1.467 0-2.653 1.2-2.653 2.667l-0.013 16c0 1.467 1.2 2.667 2.667 2.667h21.333c1.467 0 2.667-1.2 2.667-2.667v-16c0-1.467-1.2-2.667-2.667-2.667zM26.133 11l-9.427 5.893c-0.427 0.267-0.987 0.267-1.413 0l-9.427-5.893c-0.333-0.213-0.533-0.573-0.533-0.96 0-0.893 0.973-1.427 1.733-0.96l8.933 5.587 8.933-5.587c0.76-0.467 1.733 0.067 1.733 0.96 0 0.387-0.2 0.747-0.533 0.96z"></path>
</symbol>
<symbol id="icon-phone-black-18dp-1-1" viewBox="0 0 32 32">
<path d="M24.882 19.774l-3.268-0.373c-0.785-0.090-1.557 0.18-2.11 0.733l-2.367 2.367c-3.641-1.853-6.626-4.825-8.478-8.478l2.38-2.38c0.553-0.553 0.823-1.325 0.733-2.11l-0.373-3.242c-0.154-1.299-1.248-2.277-2.56-2.277h-2.226c-1.454 0-2.663 1.209-2.573 2.663 0.682 10.987 9.469 19.761 20.443 20.443 1.454 0.090 2.663-1.119 2.663-2.573v-2.226c0.013-1.299-0.965-2.393-2.264-2.547z"></path>
</symbol>
<symbol id="icon---18-dp-1" viewBox="0 0 32 32">
<path d="M16 16c2.947 0 5.333-2.387 5.333-5.333s-2.387-5.333-5.333-5.333c-2.947 0-5.333 2.387-5.333 5.333s2.387 5.333 5.333 5.333zM16 18.667c-3.56 0-10.667 1.787-10.667 5.333v1.333c0 0.733 0.6 1.333 1.333 1.333h18.667c0.733 0 1.333-0.6 1.333-1.333v-1.333c0-3.547-7.107-5.333-10.667-5.333z"></path>
</symbol>
<symbol id="icon-align-justify" viewBox="0 0 24 24">
<path d="M21 9h-18c-0.552 0-1 0.448-1 1s0.448 1 1 1h18c0.552 0 1-0.448 1-1s-0.448-1-1-1zM21 5h-18c-0.552 0-1 0.448-1 1s0.448 1 1 1h18c0.552 0 1-0.448 1-1s-0.448-1-1-1zM21 13h-18c-0.552 0-1 0.448-1 1s0.448 1 1 1h18c0.552 0 1-0.448 1-1s-0.448-1-1-1zM21 17h-18c-0.552 0-1 0.448-1 1s0.448 1 1 1h18c0.552 0 1-0.448 1-1s-0.448-1-1-1z"></path>
</symbol>
<symbol fill="black" id="icon-close-solid" viewBox="0 0 20 20">
<path d="M2.93 17.070c-1.884-1.821-3.053-4.37-3.053-7.193 0-5.523 4.477-10 10-10 2.823 0 5.372 1.169 7.19 3.050l0.003 0.003c1.737 1.796 2.807 4.247 2.807 6.947 0 5.523-4.477 10-10 10-2.7 0-5.151-1.070-6.95-2.81l0.003 0.003zM11.4 10l2.83-2.83-1.41-1.41-2.82 2.83-2.83-2.83-1.41 1.41 2.83 2.83-2.83 2.83 1.41 1.41 2.83-2.83 2.83 2.83 1.41-1.41-2.83-2.83z"></path>
</symbol>
</defs>
</svg>



